<svg width="270" height="34" viewBox="0 0 270 34" fill="none" xmlns="http://www.w3.org/2000/svg">
<path d="M 39.68 42.112 L 39.68 10.112 L 43.52 10.112 L 44.096 13.504 A 8.985 8.985 0 0 1 45.027 12.572 Q 45.989 11.73 47.424 10.848 Q 49.419 9.623 52.379 9.488 A 16.39 16.39 0 0 1 53.12 9.472 A 12.209 12.209 0 0 1 54.807 9.582 Q 55.696 9.706 56.435 9.971 A 5.996 5.996 0 0 1 57.376 10.4 A 5.334 5.334 0 0 1 59.275 12.259 A 7.302 7.302 0 0 1 59.84 13.376 A 7.182 7.182 0 0 1 60.657 12.564 Q 61.567 11.782 62.998 10.951 A 25.953 25.953 0 0 1 63.232 10.816 A 9.708 9.708 0 0 1 65.892 9.811 Q 67.385 9.472 69.184 9.472 Q 73.216 9.472 75.072 11.584 Q 76.788 13.536 76.917 17.896 A 24.517 24.517 0 0 1 76.928 18.624 L 76.928 42.112 L 72.256 42.112 L 72.256 19.136 A 18.755 18.755 0 0 0 72.188 17.479 Q 72.044 15.857 71.59 14.879 A 3.187 3.187 0 0 0 71.104 14.112 A 3.533 3.533 0 0 0 69.587 13.118 Q 68.685 12.8 67.456 12.8 Q 64.832 12.8 63.072 13.984 A 15.056 15.056 0 0 0 61.972 14.794 Q 61.447 15.221 61.046 15.644 A 6.581 6.581 0 0 0 60.48 16.32 Q 60.586 17.481 60.604 18.25 A 12.905 12.905 0 0 1 60.608 18.56 L 60.608 42.112 L 55.936 42.112 L 55.936 19.136 A 18.631 18.631 0 0 0 55.867 17.468 Q 55.658 15.155 54.816 14.144 Q 53.696 12.8 51.264 12.8 A 9.864 9.864 0 0 0 49.223 13.001 A 7.024 7.024 0 0 0 46.752 14.016 Q 45.147 15.086 44.459 16.007 A 3.639 3.639 0 0 0 44.288 16.256 L 44.288 42.112 L 39.68 42.112 Z M 170.24 42.112 L 170.24 10.112 L 174.08 10.112 L 174.656 13.184 A 7.539 7.539 0 0 1 175.496 12.344 Q 175.962 11.942 176.552 11.536 A 18.804 18.804 0 0 1 177.856 10.72 A 7.897 7.897 0 0 1 179.668 9.984 Q 181.504 9.472 184.128 9.472 A 13.146 13.146 0 0 1 187.054 9.778 Q 189.096 10.244 190.577 11.419 A 7.968 7.968 0 0 1 191.296 12.064 Q 193.856 14.656 193.856 19.776 L 193.856 42.112 L 189.184 42.112 L 189.184 20.736 Q 189.184 16.773 187.626 14.877 A 4.73 4.73 0 0 0 187.52 14.752 A 5.307 5.307 0 0 0 184.898 13.152 Q 183.867 12.864 182.592 12.864 A 12.773 12.773 0 0 0 180.622 13.009 Q 179.514 13.182 178.575 13.562 A 8.063 8.063 0 0 0 178.56 13.568 A 14.518 14.518 0 0 0 177.39 14.102 Q 176.843 14.384 176.399 14.685 A 6.784 6.784 0 0 0 175.84 15.104 Q 174.859 15.927 174.848 16.061 A 0.036 0.036 0 0 0 174.848 16.064 L 174.848 42.112 L 170.24 42.112 Z M 222.016 42.112 L 222.016 10.112 L 225.856 10.112 L 226.432 13.184 A 7.539 7.539 0 0 1 227.272 12.344 Q 227.738 11.942 228.328 11.536 A 18.804 18.804 0 0 1 229.632 10.72 A 7.897 7.897 0 0 1 231.444 9.984 Q 233.28 9.472 235.904 9.472 A 13.146 13.146 0 0 1 238.83 9.778 Q 240.872 10.244 242.353 11.419 A 7.968 7.968 0 0 1 243.072 12.064 Q 245.632 14.656 245.632 19.776 L 245.632 42.112 L 240.96 42.112 L 240.96 20.736 Q 240.96 16.773 239.402 14.877 A 4.73 4.73 0 0 0 239.296 14.752 A 5.307 5.307 0 0 0 236.674 13.152 Q 235.643 12.864 234.368 12.864 A 12.773 12.773 0 0 0 232.398 13.009 Q 231.29 13.182 230.351 13.562 A 8.063 8.063 0 0 0 230.336 13.568 A 14.518 14.518 0 0 0 229.166 14.102 Q 228.619 14.384 228.175 14.685 A 6.784 6.784 0 0 0 227.616 15.104 Q 226.635 15.927 226.624 16.061 A 0.036 0.036 0 0 0 226.624 16.064 L 226.624 42.112 L 222.016 42.112 Z M 137.024 32.448 L 137.024 10.112 L 141.696 10.112 L 141.696 31.488 A 13.57 13.57 0 0 0 141.987 34.434 Q 142.915 38.589 146.806 39.239 A 9.384 9.384 0 0 0 148.352 39.36 A 12.097 12.097 0 0 0 150.214 39.224 Q 151.371 39.044 152.32 38.624 Q 153.984 37.888 154.976 37.056 Q 155.957 36.233 155.968 36.099 A 0.036 0.036 0 0 0 155.968 36.096 L 155.968 10.112 L 160.64 10.112 L 160.64 42.112 L 156.736 42.112 L 156.096 39.04 Q 155.345 40.079 153.449 41.223 A 21.046 21.046 0 0 1 153.024 41.472 Q 151.394 42.404 148.848 42.657 A 20.542 20.542 0 0 1 146.816 42.752 Q 143.017 42.752 140.614 41.038 A 7.867 7.867 0 0 1 139.584 40.16 Q 137.024 37.568 137.024 32.448 Z M 3.392 42.112 L 0 42.112 L 14.016 0.512 L 19.712 0.512 L 33.472 42.112 L 28.416 42.112 L 24.064 29.312 L 7.744 29.312 L 3.392 42.112 Z M 101.44 23.552 L 101.44 20.16 A 21.982 21.982 0 0 0 101.349 18.083 Q 101.154 16.032 100.536 14.808 A 4.002 4.002 0 0 0 99.968 13.952 A 4.192 4.192 0 0 0 98.402 12.875 Q 97.077 12.325 95.059 12.29 A 16.007 16.007 0 0 0 94.784 12.288 A 9.851 9.851 0 0 0 92.145 12.659 A 11.612 11.612 0 0 0 91.392 12.896 A 23.556 23.556 0 0 0 90.078 13.401 Q 89.183 13.777 88.48 14.176 Q 87.296 14.848 86.976 15.04 L 86.464 12.416 A 2.367 2.367 0 0 1 86.619 12.304 Q 87.03 12.028 88.096 11.456 Q 89.097 10.919 90.509 10.419 A 29.212 29.212 0 0 1 91.424 10.112 Q 93.44 9.472 95.488 9.472 Q 98.759 9.472 100.99 10.286 A 7.745 7.745 0 0 1 103.552 11.776 A 6.529 6.529 0 0 1 105.186 14.171 Q 106.045 16.239 106.107 19.403 A 25.468 25.468 0 0 1 106.112 19.904 L 106.112 35.584 Q 106.112 38.077 106.567 38.992 A 1.793 1.793 0 0 0 106.592 39.04 Q 106.858 39.537 107.193 39.758 A 1.037 1.037 0 0 0 107.776 39.936 Q 108.195 39.936 108.748 39.818 A 8.547 8.547 0 0 0 109.184 39.712 Q 109.902 39.519 110.191 39.397 A 1.389 1.389 0 0 0 110.272 39.36 L 110.464 41.536 A 10.73 10.73 0 0 1 110.185 41.635 Q 109.728 41.792 108.859 42.063 A 151.299 151.299 0 0 1 108.288 42.24 Q 106.624 42.752 105.472 42.752 A 4.191 4.191 0 0 1 104.419 42.627 A 2.867 2.867 0 0 1 102.912 41.696 Q 102.016 40.64 101.824 37.952 L 101.76 37.952 Q 101.76 38.193 100.855 39.282 A 28.293 28.293 0 0 1 100.736 39.424 A 7.226 7.226 0 0 1 99.74 40.386 Q 99.211 40.813 98.545 41.218 A 15.273 15.273 0 0 1 97.696 41.696 Q 95.94 42.616 93.431 42.734 A 16.08 16.08 0 0 1 92.672 42.752 A 13.973 13.973 0 0 1 89.851 42.483 Q 87.528 42.005 85.888 40.672 A 6.779 6.779 0 0 1 83.391 36 A 9.744 9.744 0 0 1 83.328 34.88 A 8.479 8.479 0 0 1 87.577 27.523 Q 91.094 25.206 97.52 24.092 A 60.04 60.04 0 0 1 101.44 23.552 Z M 117.696 33.536 L 117.696 13.248 L 114.368 13.248 L 114.368 10.56 L 117.696 10.176 L 119.424 0 L 122.368 0 L 122.368 10.112 L 130.56 10.112 L 130.56 13.248 L 122.368 13.248 L 122.368 32.384 Q 122.368 36.544 123.168 38.112 Q 123.968 39.68 125.952 39.68 Q 127.552 39.68 128.832 39.36 Q 130.112 39.04 130.112 38.976 L 130.432 41.536 A 0.524 0.524 0 0 1 130.354 41.597 Q 130.209 41.693 129.872 41.846 A 12.576 12.576 0 0 1 129.632 41.952 A 5.343 5.343 0 0 1 129.163 42.125 Q 128.702 42.273 128.059 42.412 A 20.664 20.664 0 0 1 127.648 42.496 Q 126.336 42.752 124.48 42.752 Q 121.804 42.752 120.202 41.466 A 5.125 5.125 0 0 1 119.36 40.608 Q 117.696 38.464 117.696 33.536 Z M 318.848 42.112 L 318.848 10.112 L 322.304 10.112 L 323.008 16.704 Q 323.008 16.343 323.659 14.708 A 50.005 50.005 0 0 1 323.744 14.496 Q 324.48 12.672 326.016 11.072 A 5.139 5.139 0 0 1 329.463 9.491 A 6.971 6.971 0 0 1 329.984 9.472 Q 331.2 9.472 332.736 9.888 A 58.442 58.442 0 0 1 333.356 10.059 Q 334.184 10.294 334.57 10.436 A 3.316 3.316 0 0 1 334.72 10.496 L 334.272 14.016 A 3.467 3.467 0 0 0 334.022 13.923 Q 333.608 13.783 332.793 13.574 A 53.366 53.366 0 0 0 332.256 13.44 Q 330.915 13.112 329.831 13.064 A 8.201 8.201 0 0 0 329.472 13.056 Q 327.616 13.056 326.304 14.304 A 9.723 9.723 0 0 0 325.13 15.634 A 7.644 7.644 0 0 0 324.352 16.96 Q 323.847 18.072 323.621 18.745 A 5.968 5.968 0 0 0 323.52 19.072 L 323.52 42.112 L 318.848 42.112 Z M 261.826 42.249 A 16.203 16.203 0 0 0 265.984 42.752 A 17.009 17.009 0 0 0 268.513 42.571 A 11.557 11.557 0 0 0 276.064 38.368 A 13.663 13.663 0 0 0 277.792 35.603 Q 278.781 33.516 279.234 30.902 A 28.104 28.104 0 0 0 279.616 26.112 A 31.541 31.541 0 0 0 279.477 23.082 Q 279.244 20.676 278.624 18.668 A 14.484 14.484 0 0 0 276.128 13.824 A 11.105 11.105 0 0 0 270.142 9.975 A 16.203 16.203 0 0 0 265.984 9.472 Q 259.328 9.472 255.84 13.824 Q 253.469 16.782 252.71 21.396 A 29.09 29.09 0 0 0 252.352 26.112 A 31.541 31.541 0 0 0 252.491 29.142 Q 252.724 31.548 253.344 33.556 A 14.484 14.484 0 0 0 255.84 38.4 A 11.105 11.105 0 0 0 261.826 42.249 Z M 293.89 42.249 A 16.203 16.203 0 0 0 298.048 42.752 A 17.009 17.009 0 0 0 300.577 42.571 A 11.557 11.557 0 0 0 308.128 38.368 A 13.663 13.663 0 0 0 309.856 35.603 Q 310.845 33.516 311.298 30.902 A 28.104 28.104 0 0 0 311.68 26.112 A 31.541 31.541 0 0 0 311.541 23.082 Q 311.308 20.676 310.688 18.668 A 14.484 14.484 0 0 0 308.192 13.824 A 11.105 11.105 0 0 0 302.206 9.975 A 16.203 16.203 0 0 0 298.048 9.472 Q 291.392 9.472 287.904 13.824 Q 285.533 16.782 284.774 21.396 A 29.09 29.09 0 0 0 284.416 26.112 A 31.541 31.541 0 0 0 284.555 29.142 Q 284.788 31.548 285.408 33.556 A 14.484 14.484 0 0 0 287.904 38.4 A 11.105 11.105 0 0 0 293.89 42.249 Z M 265.984 39.936 A 9.221 9.221 0 0 0 268.669 39.567 A 6.79 6.79 0 0 0 272.576 36.512 A 11.566 11.566 0 0 0 273.778 33.738 Q 274.597 30.996 274.679 27.015 A 43.809 43.809 0 0 0 274.688 26.112 A 36.444 36.444 0 0 0 274.521 22.497 Q 274.141 18.696 272.895 16.31 A 9.621 9.621 0 0 0 272.576 15.744 A 6.865 6.865 0 0 0 267.597 12.412 A 10.055 10.055 0 0 0 265.984 12.288 A 9.221 9.221 0 0 0 263.299 12.657 A 6.79 6.79 0 0 0 259.392 15.712 A 11.566 11.566 0 0 0 258.19 18.486 Q 257.371 21.228 257.289 25.209 A 43.809 43.809 0 0 0 257.28 26.112 A 36.964 36.964 0 0 0 257.447 29.755 Q 257.815 33.453 258.991 35.792 A 9.516 9.516 0 0 0 259.392 36.512 Q 261.504 39.936 265.984 39.936 Z M 298.048 39.936 A 9.221 9.221 0 0 0 300.733 39.567 A 6.79 6.79 0 0 0 304.64 36.512 A 11.566 11.566 0 0 0 305.842 33.738 Q 306.661 30.996 306.743 27.015 A 43.809 43.809 0 0 0 306.752 26.112 A 36.444 36.444 0 0 0 306.585 22.497 Q 306.205 18.696 304.959 16.31 A 9.621 9.621 0 0 0 304.64 15.744 A 6.865 6.865 0 0 0 299.661 12.412 A 10.055 10.055 0 0 0 298.048 12.288 A 9.221 9.221 0 0 0 295.363 12.657 A 6.79 6.79 0 0 0 291.456 15.712 A 11.566 11.566 0 0 0 290.254 18.486 Q 289.435 21.228 289.353 25.209 A 43.809 43.809 0 0 0 289.344 26.112 A 36.964 36.964 0 0 0 289.511 29.755 Q 289.879 33.453 291.055 35.792 A 9.516 9.516 0 0 0 291.456 36.512 Q 293.568 39.936 298.048 39.936 Z M 16 4.224 L 8.64 26.688 L 23.232 26.688 L 16 4.224 Z M 101.44 35.264 L 101.44 25.92 Q 96.981 26.41 93.741 27.613 A 19.443 19.443 0 0 0 91.872 28.416 A 7.504 7.504 0 0 0 89.818 29.868 Q 88.128 31.595 88.128 34.304 A 7.547 7.547 0 0 0 88.3 35.969 Q 88.653 37.529 89.728 38.496 A 5.378 5.378 0 0 0 92.032 39.698 Q 92.845 39.906 93.803 39.932 A 10.189 10.189 0 0 0 94.08 39.936 A 8.701 8.701 0 0 0 96.037 39.726 A 6.661 6.661 0 0 0 98.048 38.912 A 10.939 10.939 0 0 0 99.268 38.048 Q 100.063 37.394 100.576 36.672 Q 101.282 35.679 101.411 35.369 A 0.306 0.306 0 0 0 101.44 35.264 Z M 215.04 25.856 L 200.384 25.856 L 200.384 22.848 L 215.04 22.848 L 215.04 25.856 Z" fill="white"/>
<path d="M265.19 33V28.644H269.326V33H265.19Z" fill="#F13024"/>
</svg>
