<svg width="270" height="34" viewBox="0 0 270 34" fill="none" xmlns="http://www.w3.org/2000/svg">
<path d="M 0 51.001 L 0 1.001 L 6 1.001 L 6.9 5.801 Q 7.975 4.525 9.863 3.225 A 29.381 29.381 0 0 1 11.9 1.951 A 12.339 12.339 0 0 1 14.731 0.801 Q 17.51 0.026 21.445 0.002 A 41.418 41.418 0 0 1 21.7 0.001 A 20.541 20.541 0 0 1 26.272 0.48 Q 30.275 1.393 32.9 4.051 Q 36.9 8.101 36.9 16.101 L 36.9 51.001 L 29.6 51.001 L 29.6 17.601 A 25.004 25.004 0 0 0 29.394 14.274 Q 28.869 10.371 27 8.251 Q 24.4 5.301 19.3 5.301 A 19.957 19.957 0 0 0 16.222 5.527 Q 14.49 5.797 13.023 6.392 A 12.57 12.57 0 0 0 13 6.401 Q 10.994 7.218 9.623 8.146 A 10.601 10.601 0 0 0 8.75 8.801 Q 7.217 10.087 7.2 10.297 A 0.056 0.056 0 0 0 7.2 10.301 L 7.2 51.001 L 0 51.001 Z M 151.3 51.001 L 151.3 1.001 L 156.7 1.001 L 157.8 11.301 A 1.561 1.561 0 0 1 157.84 10.997 Q 158.003 10.228 158.817 8.182 A 78.154 78.154 0 0 1 158.95 7.851 A 15.976 15.976 0 0 1 161.249 3.935 A 19.541 19.541 0 0 1 162.5 2.501 Q 164.9 0.001 168.7 0.001 A 13.24 13.24 0 0 1 170.458 0.126 Q 171.352 0.245 172.335 0.481 A 23.548 23.548 0 0 1 173 0.651 A 91.314 91.314 0 0 1 173.969 0.919 Q 175.553 1.367 176.1 1.601 L 175.4 7.101 Q 174.828 6.856 173.089 6.411 A 83.389 83.389 0 0 0 172.25 6.201 A 23.687 23.687 0 0 0 170.281 5.802 Q 168.998 5.601 167.9 5.601 Q 165 5.601 162.95 7.551 A 15.191 15.191 0 0 0 161.115 9.629 A 11.944 11.944 0 0 0 159.9 11.701 Q 158.9 13.901 158.6 15.001 L 158.6 51.001 L 151.3 51.001 Z M 62.203 51.216 A 25.317 25.317 0 0 0 68.7 52.001 A 26.577 26.577 0 0 0 72.652 51.718 A 18.058 18.058 0 0 0 84.45 45.151 Q 90 38.301 90 26.001 Q 90 13.601 84.55 6.801 A 17.351 17.351 0 0 0 75.197 0.786 A 25.317 25.317 0 0 0 68.7 0.001 A 26.767 26.767 0 0 0 63.774 0.433 A 17.652 17.652 0 0 0 52.85 6.801 Q 49.146 11.423 47.959 18.632 A 45.453 45.453 0 0 0 47.4 26.001 Q 47.4 38.401 52.85 45.201 A 17.351 17.351 0 0 0 62.203 51.216 Z M 112.303 51.216 A 25.317 25.317 0 0 0 118.8 52.001 A 26.577 26.577 0 0 0 122.752 51.718 A 18.058 18.058 0 0 0 134.55 45.151 Q 140.1 38.301 140.1 26.001 Q 140.1 13.601 134.65 6.801 A 17.351 17.351 0 0 0 125.297 0.786 A 25.317 25.317 0 0 0 118.8 0.001 A 26.767 26.767 0 0 0 113.874 0.433 A 17.652 17.652 0 0 0 102.95 6.801 Q 99.246 11.423 98.059 18.632 A 45.453 45.453 0 0 0 97.5 26.001 Q 97.5 38.401 102.95 45.201 A 17.351 17.351 0 0 0 112.303 51.216 Z M 68.7 47.601 A 14.408 14.408 0 0 0 72.895 47.025 A 10.609 10.609 0 0 0 79 42.251 Q 82.083 37.253 82.286 27.413 A 68.453 68.453 0 0 0 82.3 26.001 Q 82.3 15.201 79 9.801 A 10.727 10.727 0 0 0 71.22 4.595 A 15.712 15.712 0 0 0 68.7 4.401 A 14.408 14.408 0 0 0 64.505 4.977 A 10.609 10.609 0 0 0 58.4 9.751 Q 55.317 14.749 55.114 24.59 A 68.453 68.453 0 0 0 55.1 26.001 Q 55.1 35.811 57.773 41.125 A 14.868 14.868 0 0 0 58.4 42.251 A 10.734 10.734 0 0 0 66.205 47.413 A 15.878 15.878 0 0 0 68.7 47.601 Z M 118.8 47.601 A 14.408 14.408 0 0 0 122.995 47.025 A 10.609 10.609 0 0 0 129.1 42.251 Q 132.183 37.253 132.386 27.413 A 68.453 68.453 0 0 0 132.4 26.001 Q 132.4 15.201 129.1 9.801 A 10.727 10.727 0 0 0 121.32 4.595 A 15.712 15.712 0 0 0 118.8 4.401 A 14.408 14.408 0 0 0 114.605 4.977 A 10.609 10.609 0 0 0 108.5 9.751 Q 105.417 14.749 105.214 24.59 A 68.453 68.453 0 0 0 105.2 26.001 Q 105.2 35.811 107.873 41.125 A 14.868 14.868 0 0 0 108.5 42.251 A 10.734 10.734 0 0 0 116.305 47.413 A 15.878 15.878 0 0 0 118.8 47.601 Z" fill="white"/>
<path d="M265.19 33V28.644H269.326V33H265.19Z" fill="#F13024"/>
</svg>
