<svg width="290" height="34" viewBox="0 0 290 36" fill="none" xmlns="http://www.w3.org/2000/svg">
<path d="M 32.86 34.874 L 32.86 8.374 L 36.04 8.374 L 36.517 11.183 Q 37.147 10.441 38.245 9.661 A 18.319 18.319 0 0 1 39.273 8.983 Q 41.128 7.844 43.99 7.844 A 10.111 10.111 0 0 1 45.387 7.935 Q 46.628 8.108 47.515 8.613 A 4.417 4.417 0 0 1 49.088 10.152 A 6.047 6.047 0 0 1 49.555 11.077 A 5.948 5.948 0 0 1 50.231 10.405 Q 50.986 9.757 52.17 9.068 A 21.496 21.496 0 0 1 52.364 8.957 A 8.04 8.04 0 0 1 54.567 8.124 Q 55.533 7.905 56.653 7.857 A 14.972 14.972 0 0 1 57.293 7.844 Q 60.632 7.844 62.169 9.593 Q 63.59 11.21 63.697 14.82 A 20.303 20.303 0 0 1 63.706 15.423 L 63.706 34.874 L 59.837 34.874 L 59.837 15.847 A 15.531 15.531 0 0 0 59.781 14.475 Q 59.661 13.131 59.285 12.321 A 2.639 2.639 0 0 0 58.883 11.687 A 2.926 2.926 0 0 0 57.627 10.863 Q 57.142 10.693 56.544 10.633 A 6.84 6.84 0 0 0 55.862 10.6 Q 53.689 10.6 52.232 11.581 A 12.468 12.468 0 0 0 51.32 12.251 Q 50.886 12.605 50.553 12.955 A 5.45 5.45 0 0 0 50.085 13.515 Q 50.172 14.476 50.188 15.113 A 10.688 10.688 0 0 1 50.191 15.37 L 50.191 34.874 L 46.322 34.874 L 46.322 15.847 A 15.428 15.428 0 0 0 46.265 14.466 Q 46.144 13.123 45.765 12.31 A 2.728 2.728 0 0 0 45.395 11.713 A 2.873 2.873 0 0 0 44.061 10.83 Q 43.37 10.6 42.453 10.6 A 8.168 8.168 0 0 0 40.762 10.766 A 5.817 5.817 0 0 0 38.717 11.607 A 12.89 12.89 0 0 0 37.944 12.161 Q 37.205 12.737 36.817 13.256 A 3.013 3.013 0 0 0 36.676 13.462 L 36.676 34.874 L 32.86 34.874 Z M 140.98 34.874 L 140.98 8.374 L 144.16 8.374 L 144.637 10.918 A 6.244 6.244 0 0 1 145.333 10.223 Q 145.719 9.889 146.207 9.553 A 15.572 15.572 0 0 1 147.287 8.877 Q 149.053 7.865 152.346 7.844 A 21.965 21.965 0 0 1 152.481 7.844 A 10.887 10.887 0 0 1 154.904 8.098 Q 156.595 8.484 157.822 9.456 A 6.599 6.599 0 0 1 158.417 9.99 Q 160.173 11.768 160.474 14.981 A 14.938 14.938 0 0 1 160.537 16.377 L 160.537 34.874 L 156.668 34.874 L 156.668 17.172 A 13.252 13.252 0 0 0 156.559 15.409 Q 156.293 13.434 155.378 12.32 A 3.918 3.918 0 0 0 155.29 12.216 A 4.395 4.395 0 0 0 153.119 10.892 Q 152.398 10.69 151.534 10.659 A 8.937 8.937 0 0 0 151.209 10.653 A 10.577 10.577 0 0 0 149.578 10.773 Q 148.653 10.917 147.87 11.236 Q 146.439 11.819 145.618 12.508 A 23.599 23.599 0 0 0 145.425 12.671 Q 144.796 13.21 144.796 13.303 L 144.796 34.874 L 140.98 34.874 Z M 183.857 34.874 L 183.857 8.374 L 187.037 8.374 L 187.514 10.918 A 6.244 6.244 0 0 1 188.21 10.223 Q 188.596 9.889 189.084 9.553 A 15.572 15.572 0 0 1 190.164 8.877 Q 191.93 7.865 195.223 7.844 A 21.965 21.965 0 0 1 195.358 7.844 A 10.887 10.887 0 0 1 197.781 8.098 Q 199.472 8.484 200.699 9.456 A 6.599 6.599 0 0 1 201.294 9.99 Q 203.05 11.768 203.351 14.981 A 14.938 14.938 0 0 1 203.414 16.377 L 203.414 34.874 L 199.545 34.874 L 199.545 17.172 A 13.252 13.252 0 0 0 199.436 15.409 Q 199.17 13.434 198.255 12.32 A 3.918 3.918 0 0 0 198.167 12.216 A 4.395 4.395 0 0 0 195.996 10.892 Q 195.275 10.69 194.411 10.659 A 8.937 8.937 0 0 0 194.086 10.653 A 10.577 10.577 0 0 0 192.455 10.773 Q 191.53 10.917 190.747 11.236 Q 189.316 11.819 188.495 12.508 A 23.599 23.599 0 0 0 188.302 12.671 Q 187.673 13.21 187.673 13.303 L 187.673 34.874 L 183.857 34.874 Z M 113.473 26.871 L 113.473 8.374 L 117.342 8.374 L 117.342 26.076 A 11.238 11.238 0 0 0 117.583 28.516 Q 118.494 32.595 122.854 32.595 Q 124.762 32.595 126.14 31.986 A 12.714 12.714 0 0 0 127.095 31.517 Q 127.552 31.267 127.924 31.006 A 6.216 6.216 0 0 0 128.34 30.687 A 23.599 23.599 0 0 0 128.532 30.524 Q 129.161 29.985 129.161 29.892 L 129.161 8.374 L 133.03 8.374 L 133.03 34.874 L 129.797 34.874 L 129.267 32.33 A 4.267 4.267 0 0 1 128.723 32.937 Q 128.101 33.519 127.075 34.138 A 17.429 17.429 0 0 1 126.723 34.344 A 6.983 6.983 0 0 1 125.065 35.008 Q 124.247 35.228 123.265 35.325 A 17.011 17.011 0 0 1 121.582 35.404 A 11.192 11.192 0 0 1 119.18 35.162 Q 117.614 34.818 116.446 33.984 A 6.515 6.515 0 0 1 115.593 33.257 Q 113.837 31.48 113.536 28.267 A 14.938 14.938 0 0 1 113.473 26.871 Z M 2.809 34.874 L 0 34.874 L 11.607 0.424 L 16.324 0.424 L 27.719 34.874 L 23.532 34.874 L 19.928 24.274 L 6.413 24.274 L 2.809 34.874 Z M 84.005 19.504 L 84.005 16.695 A 18.204 18.204 0 0 0 83.93 14.975 Q 83.703 12.59 82.786 11.554 Q 81.567 10.176 78.493 10.176 Q 77.115 10.176 75.684 10.68 Q 74.492 11.099 73.613 11.555 A 10.264 10.264 0 0 0 73.272 11.739 A 274.693 274.693 0 0 0 72.93 11.934 Q 72.242 12.326 72.027 12.455 L 71.603 10.282 A 1.96 1.96 0 0 1 71.731 10.189 Q 72.072 9.961 72.955 9.487 Q 73.784 9.042 74.952 8.628 A 24.191 24.191 0 0 1 75.71 8.374 Q 77.38 7.844 79.076 7.844 A 17.323 17.323 0 0 1 81.447 7.995 Q 82.659 8.163 83.633 8.518 A 6.414 6.414 0 0 1 85.754 9.752 A 5.407 5.407 0 0 1 87.107 11.735 Q 87.818 13.448 87.87 16.068 A 21.091 21.091 0 0 1 87.874 16.483 L 87.874 29.468 A 17.818 17.818 0 0 0 87.896 30.386 Q 87.965 31.715 88.251 32.29 A 1.485 1.485 0 0 0 88.271 32.33 A 2.141 2.141 0 0 0 88.482 32.655 Q 88.617 32.824 88.769 32.925 A 0.859 0.859 0 0 0 89.252 33.072 A 3.138 3.138 0 0 0 89.64 33.046 Q 89.835 33.021 90.057 32.974 A 7.078 7.078 0 0 0 90.418 32.887 A 17.101 17.101 0 0 0 90.697 32.809 Q 91.073 32.701 91.252 32.626 A 1.15 1.15 0 0 0 91.319 32.595 L 91.478 34.397 Q 91.132 34.527 90.149 34.834 A 125.307 125.307 0 0 1 89.676 34.98 A 12.198 12.198 0 0 1 88.779 35.221 Q 87.97 35.404 87.344 35.404 A 3.47 3.47 0 0 1 86.472 35.301 A 2.374 2.374 0 0 1 85.224 34.53 A 2.689 2.689 0 0 1 84.817 33.851 Q 84.432 32.959 84.323 31.429 L 84.27 31.429 A 0.305 0.305 0 0 1 84.236 31.545 Q 84.101 31.842 83.422 32.648 A 5.984 5.984 0 0 1 82.597 33.444 Q 82.159 33.798 81.607 34.134 A 12.648 12.648 0 0 1 80.904 34.529 A 7.18 7.18 0 0 1 79.094 35.171 Q 78.028 35.404 76.744 35.404 A 11.571 11.571 0 0 1 74.408 35.182 Q 72.484 34.785 71.126 33.682 Q 69.006 31.959 69.006 28.885 A 7.022 7.022 0 0 1 72.525 22.792 Q 75.437 20.873 80.759 19.951 A 49.721 49.721 0 0 1 84.005 19.504 Z M 97.467 27.772 L 97.467 10.971 L 94.711 10.971 L 94.711 8.745 L 97.467 8.427 L 98.898 0 L 101.336 0 L 101.336 8.374 L 108.12 8.374 L 108.12 10.971 L 101.336 10.971 L 101.336 26.818 A 28.301 28.301 0 0 0 101.375 28.361 Q 101.456 29.833 101.704 30.761 A 4.108 4.108 0 0 0 101.999 31.561 A 2.233 2.233 0 0 0 103.588 32.789 A 3.401 3.401 0 0 0 104.304 32.86 Q 105.629 32.86 106.689 32.595 A 38.309 38.309 0 0 0 106.937 32.532 Q 107.749 32.323 107.749 32.277 L 108.014 34.397 A 0.434 0.434 0 0 1 107.949 34.448 Q 107.83 34.527 107.551 34.654 A 10.415 10.415 0 0 1 107.351 34.741 Q 106.886 34.941 106.049 35.122 A 17.112 17.112 0 0 1 105.708 35.192 A 10.338 10.338 0 0 1 104.751 35.329 Q 104.28 35.376 103.747 35.393 A 20.179 20.179 0 0 1 103.085 35.404 A 7.294 7.294 0 0 1 101.441 35.231 Q 100.333 34.974 99.542 34.339 A 4.244 4.244 0 0 1 98.845 33.628 A 5.255 5.255 0 0 1 98.068 32.155 Q 97.557 30.719 97.48 28.555 A 22.214 22.214 0 0 1 97.467 27.772 Z M 264.046 34.874 L 264.046 8.374 L 266.908 8.374 L 267.491 13.833 A 0.827 0.827 0 0 1 267.512 13.672 Q 267.605 13.232 268.101 12.005 A 8.467 8.467 0 0 1 269.319 9.929 A 10.357 10.357 0 0 1 269.982 9.169 A 4.256 4.256 0 0 1 272.836 7.86 A 5.773 5.773 0 0 1 273.268 7.844 Q 274.275 7.844 275.547 8.189 A 48.397 48.397 0 0 1 276.06 8.33 Q 276.746 8.524 277.065 8.643 A 2.746 2.746 0 0 1 277.19 8.692 L 276.819 11.607 A 2.871 2.871 0 0 0 276.612 11.53 Q 276.164 11.378 275.15 11.13 Q 274.039 10.858 273.141 10.819 A 6.791 6.791 0 0 0 272.844 10.812 Q 271.307 10.812 270.221 11.846 A 8.051 8.051 0 0 0 269.248 12.947 A 6.33 6.33 0 0 0 268.604 14.045 A 27.602 27.602 0 0 0 268.362 14.592 Q 268.126 15.142 267.998 15.523 A 4.942 4.942 0 0 0 267.915 15.794 L 267.915 34.874 L 264.046 34.874 Z M 216.825 34.988 A 13.418 13.418 0 0 0 220.268 35.404 Q 225.674 35.404 228.616 31.774 A 11.314 11.314 0 0 0 230.047 29.483 Q 230.865 27.755 231.24 25.591 A 23.274 23.274 0 0 0 231.557 21.624 A 26.12 26.12 0 0 0 231.442 19.115 Q 231.249 17.122 230.736 15.459 A 11.994 11.994 0 0 0 228.668 11.448 A 9.196 9.196 0 0 0 223.711 8.26 A 13.418 13.418 0 0 0 220.268 7.844 A 14.187 14.187 0 0 0 217.657 8.073 A 9.356 9.356 0 0 0 211.868 11.448 A 11.261 11.261 0 0 0 210.362 13.949 Q 209.619 15.629 209.275 17.718 A 24.09 24.09 0 0 0 208.979 21.624 A 26.12 26.12 0 0 0 209.094 24.133 Q 209.287 26.126 209.8 27.789 A 11.994 11.994 0 0 0 211.868 31.8 A 9.196 9.196 0 0 0 216.825 34.988 Z M 243.378 34.988 A 13.418 13.418 0 0 0 246.821 35.404 Q 252.227 35.404 255.169 31.774 A 11.314 11.314 0 0 0 256.6 29.483 Q 257.418 27.755 257.793 25.591 A 23.274 23.274 0 0 0 258.11 21.624 A 26.12 26.12 0 0 0 257.995 19.115 Q 257.802 17.122 257.289 15.459 A 11.994 11.994 0 0 0 255.221 11.448 A 9.196 9.196 0 0 0 250.264 8.26 A 13.418 13.418 0 0 0 246.821 7.844 A 14.187 14.187 0 0 0 244.21 8.073 A 9.356 9.356 0 0 0 238.421 11.448 A 11.261 11.261 0 0 0 236.915 13.949 Q 236.172 15.629 235.828 17.718 A 24.09 24.09 0 0 0 235.532 21.624 A 26.12 26.12 0 0 0 235.647 24.133 Q 235.84 26.126 236.353 27.789 A 11.994 11.994 0 0 0 238.421 31.8 A 9.196 9.196 0 0 0 243.378 34.988 Z M 220.268 33.072 A 7.636 7.636 0 0 0 222.492 32.767 A 5.623 5.623 0 0 0 225.727 30.236 A 9.578 9.578 0 0 0 226.723 27.94 Q 227.4 25.668 227.468 22.372 A 36.279 36.279 0 0 0 227.476 21.624 Q 227.476 16.351 225.992 13.506 A 7.967 7.967 0 0 0 225.727 13.038 A 5.685 5.685 0 0 0 221.603 10.279 A 8.327 8.327 0 0 0 220.268 10.176 A 7.636 7.636 0 0 0 218.044 10.481 A 5.623 5.623 0 0 0 214.809 13.012 A 9.578 9.578 0 0 0 213.813 15.308 Q 213.136 17.58 213.068 20.876 A 36.279 36.279 0 0 0 213.06 21.624 Q 213.06 27.401 214.809 30.237 A 5.689 5.689 0 0 0 218.946 32.972 A 8.415 8.415 0 0 0 220.268 33.072 Z M 246.821 33.072 A 7.636 7.636 0 0 0 249.045 32.767 A 5.623 5.623 0 0 0 252.28 30.236 A 9.578 9.578 0 0 0 253.276 27.94 Q 253.953 25.668 254.021 22.372 A 36.279 36.279 0 0 0 254.029 21.624 Q 254.029 16.351 252.545 13.506 A 7.967 7.967 0 0 0 252.28 13.038 A 5.685 5.685 0 0 0 248.156 10.279 A 8.327 8.327 0 0 0 246.821 10.176 A 7.636 7.636 0 0 0 244.597 10.481 A 5.623 5.623 0 0 0 241.362 13.012 A 9.578 9.578 0 0 0 240.366 15.308 Q 239.689 17.58 239.621 20.876 A 36.279 36.279 0 0 0 239.613 21.624 Q 239.613 27.401 241.362 30.237 A 5.689 5.689 0 0 0 245.499 32.972 A 8.415 8.415 0 0 0 246.821 33.072 Z M 13.25 3.498 L 7.155 22.101 L 19.239 22.101 L 13.25 3.498 Z M 84.005 29.203 L 84.005 21.465 A 32.794 32.794 0 0 0 80.63 22.004 Q 78.998 22.359 77.629 22.867 A 16.101 16.101 0 0 0 76.081 23.532 A 6.214 6.214 0 0 0 74.381 24.735 Q 72.981 26.165 72.981 28.408 A 6.25 6.25 0 0 0 73.124 29.787 Q 73.332 30.71 73.847 31.383 A 3.652 3.652 0 0 0 74.306 31.88 A 4.453 4.453 0 0 0 76.214 32.875 Q 76.887 33.047 77.681 33.069 A 8.437 8.437 0 0 0 77.91 33.072 A 7.205 7.205 0 0 0 79.53 32.898 A 5.516 5.516 0 0 0 81.196 32.224 Q 82.382 31.494 83.078 30.646 A 5.049 5.049 0 0 0 83.29 30.369 Q 84.005 29.362 84.005 29.203 Z M 178.08 21.412 L 165.943 21.412 L 165.943 18.921 L 178.08 18.921 L 178.08 21.412 Z M 281.095 34.83 A 2.425 2.425 0 0 0 282.596 35.351 Q 283.55 35.351 284.292 34.715 A 2.259 2.259 0 0 0 284.872 33.733 A 2.926 2.926 0 0 0 284.981 32.913 Q 284.981 31.8 284.292 31.111 A 2.33 2.33 0 0 0 283.497 30.624 A 2.634 2.634 0 0 0 282.596 30.475 A 2.364 2.364 0 0 0 281.722 30.639 A 2.704 2.704 0 0 0 280.953 31.111 A 2.231 2.231 0 0 0 280.338 32.064 A 2.713 2.713 0 0 0 280.211 32.913 A 3.135 3.135 0 0 0 280.221 33.16 A 2.289 2.289 0 0 0 280.953 34.715 A 3.125 3.125 0 0 0 281.095 34.83 Z" fill="white"/>
<path d="M265.19 33V28.644H269.326V33H265.19Z" fill="#F13024"/>
</svg>
