<svg width="270" height="34" viewBox="0 0 270 34" fill="none" xmlns="http://www.w3.org/2000/svg">
<path d="M 62 65.8 L 62 15.8 L 68 15.8 L 68.9 21.1 Q 70.09 19.701 72.16 18.228 A 34.564 34.564 0 0 1 74.1 16.95 Q 77.217 15.035 81.841 14.826 A 25.609 25.609 0 0 1 83 14.8 A 19.077 19.077 0 0 1 85.636 14.971 Q 87.026 15.166 88.18 15.58 A 9.369 9.369 0 0 1 89.65 16.25 A 8.335 8.335 0 0 1 92.618 19.154 A 11.409 11.409 0 0 1 93.5 20.9 Q 95.02 19.095 98.434 17.11 A 40.553 40.553 0 0 1 98.8 16.9 A 15.169 15.169 0 0 1 102.957 15.329 Q 104.779 14.916 106.893 14.825 A 28.248 28.248 0 0 1 108.1 14.8 A 18.994 18.994 0 0 1 111.5 15.083 Q 115.25 15.767 117.3 18.1 A 9.548 9.548 0 0 1 119.01 21.04 Q 120.06 23.798 120.183 27.962 A 38.309 38.309 0 0 1 120.2 29.1 L 120.2 65.8 L 112.9 65.8 L 112.9 29.9 Q 112.9 25.49 111.859 23.248 A 4.98 4.98 0 0 0 111.1 22.05 A 5.52 5.52 0 0 0 108.73 20.497 Q 107.816 20.175 106.687 20.061 A 12.905 12.905 0 0 0 105.4 20 A 15.006 15.006 0 0 0 102.292 20.305 A 10.536 10.536 0 0 0 98.55 21.85 Q 96.604 23.159 95.384 24.444 A 10.283 10.283 0 0 0 94.5 25.5 Q 94.7 27.7 94.7 29 L 94.7 65.8 L 87.4 65.8 L 87.4 29.9 A 29.11 29.11 0 0 0 87.292 27.294 Q 87.064 24.76 86.349 23.227 A 5.146 5.146 0 0 0 85.65 22.1 A 5.42 5.42 0 0 0 83.134 20.435 Q 82.237 20.136 81.139 20.042 A 12.261 12.261 0 0 0 80.1 20 A 15.412 15.412 0 0 0 76.91 20.314 A 10.975 10.975 0 0 0 73.05 21.9 A 24.32 24.32 0 0 0 71.593 22.945 Q 69.919 24.25 69.2 25.4 L 69.2 65.8 L 62 65.8 Z M 266 65.8 L 266 15.8 L 272 15.8 L 272.9 20.6 Q 273.975 19.323 275.863 18.024 A 29.381 29.381 0 0 1 277.9 16.75 A 12.339 12.339 0 0 1 280.731 15.6 Q 283.51 14.825 287.445 14.801 A 41.418 41.418 0 0 1 287.7 14.8 A 20.541 20.541 0 0 1 292.272 15.279 Q 296.275 16.192 298.9 18.85 Q 302.9 22.9 302.9 30.9 L 302.9 65.8 L 295.6 65.8 L 295.6 32.4 A 25.004 25.004 0 0 0 295.394 29.073 Q 294.869 25.17 293 23.05 Q 290.4 20.1 285.3 20.1 A 19.957 19.957 0 0 0 282.222 20.326 Q 280.49 20.596 279.023 21.191 A 12.57 12.57 0 0 0 279 21.2 Q 276.994 22.017 275.623 22.945 A 10.601 10.601 0 0 0 274.75 23.6 Q 273.217 24.886 273.2 25.096 A 0.056 0.056 0 0 0 273.2 25.1 L 273.2 65.8 L 266 65.8 Z M 346.9 65.8 L 346.9 15.8 L 352.9 15.8 L 353.8 20.6 Q 354.875 19.323 356.763 18.024 A 29.381 29.381 0 0 1 358.8 16.75 A 12.339 12.339 0 0 1 361.631 15.6 Q 364.41 14.825 368.345 14.801 A 41.418 41.418 0 0 1 368.6 14.8 A 20.541 20.541 0 0 1 373.172 15.279 Q 377.175 16.192 379.8 18.85 Q 383.8 22.9 383.8 30.9 L 383.8 65.8 L 376.5 65.8 L 376.5 32.4 A 25.004 25.004 0 0 0 376.294 29.073 Q 375.769 25.17 373.9 23.05 Q 371.3 20.1 366.2 20.1 A 19.957 19.957 0 0 0 363.122 20.326 Q 361.39 20.596 359.923 21.191 A 12.57 12.57 0 0 0 359.9 21.2 Q 357.894 22.017 356.523 22.945 A 10.601 10.601 0 0 0 355.65 23.6 Q 354.117 24.886 354.1 25.096 A 0.056 0.056 0 0 0 354.1 25.1 L 354.1 65.8 L 346.9 65.8 Z M 214.1 50.7 L 214.1 15.8 L 221.4 15.8 L 221.4 49.2 A 21.203 21.203 0 0 0 221.854 53.804 Q 223.304 60.295 229.384 61.311 A 14.663 14.663 0 0 0 231.8 61.5 A 18.902 18.902 0 0 0 234.709 61.288 Q 236.291 61.041 237.624 60.508 A 11.295 11.295 0 0 0 238 60.35 A 23.989 23.989 0 0 0 239.802 59.466 Q 240.664 58.995 241.366 58.501 A 11.728 11.728 0 0 0 242.15 57.9 Q 243.683 56.614 243.7 56.404 A 0.056 0.056 0 0 0 243.7 56.4 L 243.7 15.8 L 251 15.8 L 251 65.8 L 244.9 65.8 L 243.9 61 Q 242.6 62.8 239.1 64.8 Q 235.6 66.8 229.4 66.8 A 21.118 21.118 0 0 1 224.868 66.343 Q 221.913 65.694 219.709 64.122 A 12.293 12.293 0 0 1 218.1 62.75 Q 214.1 58.7 214.1 50.7 Z M 5.3 65.8 L 0 65.8 L 21.9 0.8 L 30.8 0.8 L 52.3 65.8 L 44.4 65.8 L 37.6 45.8 L 12.1 45.8 L 5.3 65.8 Z M 158.5 36.8 L 158.5 31.5 A 34.346 34.346 0 0 0 158.358 28.255 Q 157.929 23.755 156.2 21.8 A 6.551 6.551 0 0 0 153.754 20.117 Q 151.683 19.258 148.529 19.204 A 25.015 25.015 0 0 0 148.1 19.2 A 15.393 15.393 0 0 0 143.976 19.78 A 18.144 18.144 0 0 0 142.8 20.15 A 36.806 36.806 0 0 0 140.747 20.938 Q 139.742 21.361 138.892 21.802 A 19.367 19.367 0 0 0 138.25 22.15 Q 136.4 23.2 135.9 23.5 L 135.1 19.4 Q 135.585 19.012 137.527 17.966 A 90.272 90.272 0 0 1 137.65 17.9 A 22.119 22.119 0 0 1 139.342 17.089 Q 140.298 16.677 141.42 16.279 A 45.643 45.643 0 0 1 142.85 15.8 Q 146 14.8 149.2 14.8 Q 154.311 14.8 157.797 16.071 A 12.102 12.102 0 0 1 161.8 18.4 Q 165.626 21.843 165.792 30.317 A 39.795 39.795 0 0 1 165.8 31.1 L 165.8 55.6 A 33.618 33.618 0 0 0 165.841 57.332 Q 165.971 59.839 166.511 60.925 A 2.803 2.803 0 0 0 166.55 61 Q 167.3 62.4 168.4 62.4 A 5.921 5.921 0 0 0 169.131 62.351 Q 169.5 62.305 169.919 62.215 A 13.354 13.354 0 0 0 170.6 62.05 A 32.268 32.268 0 0 0 171.126 61.904 Q 171.836 61.7 172.173 61.558 A 2.17 2.17 0 0 0 172.3 61.5 L 172.6 64.9 A 16.767 16.767 0 0 1 172.164 65.055 Q 171.45 65.3 170.092 65.724 A 236.402 236.402 0 0 1 169.2 66 A 23.015 23.015 0 0 1 167.507 66.455 Q 166.673 66.644 165.941 66.729 A 9.868 9.868 0 0 1 164.8 66.8 A 6.548 6.548 0 0 1 163.154 66.605 A 4.48 4.48 0 0 1 160.8 65.15 A 5.074 5.074 0 0 1 160.032 63.87 Q 159.468 62.562 159.218 60.526 A 24.177 24.177 0 0 1 159.1 59.3 L 159 59.3 Q 159 59.7 157.4 61.6 Q 156.156 63.077 153.976 64.403 A 23.865 23.865 0 0 1 152.65 65.15 A 13.547 13.547 0 0 1 149.235 66.361 Q 147.223 66.8 144.8 66.8 A 21.833 21.833 0 0 1 140.392 66.38 Q 137.613 65.807 135.46 64.453 A 12.829 12.829 0 0 1 134.2 63.55 Q 130.2 60.3 130.2 54.5 A 13.248 13.248 0 0 1 136.84 43.004 Q 142.334 39.384 152.375 37.643 A 93.813 93.813 0 0 1 158.5 36.8 Z M 183.9 52.4 L 183.9 20.7 L 178.7 20.7 L 178.7 16.5 L 183.9 15.9 L 186.6 0 L 191.2 0 L 191.2 15.8 L 204 15.8 L 204 20.7 L 191.2 20.7 L 191.2 50.6 A 53.397 53.397 0 0 0 191.273 53.511 Q 191.503 57.693 192.45 59.55 A 4.213 4.213 0 0 0 195.448 61.865 A 6.417 6.417 0 0 0 196.8 62 Q 199.3 62 201.3 61.5 A 72.295 72.295 0 0 0 201.769 61.381 Q 203.3 60.988 203.3 60.9 L 203.8 64.9 Q 203.639 65.061 202.926 65.385 A 19.65 19.65 0 0 1 202.55 65.55 Q 201.5 66 199.45 66.4 A 19.505 19.505 0 0 1 197.644 66.659 Q 196.222 66.8 194.5 66.8 A 13.762 13.762 0 0 1 191.398 66.473 Q 188.288 65.753 186.5 63.45 A 9.915 9.915 0 0 1 185.033 60.671 Q 184.069 57.959 183.925 53.877 A 41.914 41.914 0 0 1 183.9 52.4 Z M 498.2 65.8 L 498.2 15.8 L 503.6 15.8 L 504.7 26.1 A 1.561 1.561 0 0 1 504.74 25.796 Q 504.903 25.026 505.717 22.981 A 78.154 78.154 0 0 1 505.85 22.65 A 15.976 15.976 0 0 1 508.149 18.734 A 19.541 19.541 0 0 1 509.4 17.3 Q 511.8 14.8 515.6 14.8 A 13.24 13.24 0 0 1 517.358 14.924 Q 518.252 15.044 519.235 15.28 A 23.548 23.548 0 0 1 519.9 15.45 A 91.314 91.314 0 0 1 520.869 15.718 Q 522.453 16.166 523 16.4 L 522.3 21.9 Q 521.728 21.655 519.989 21.21 A 83.389 83.389 0 0 0 519.15 21 A 23.687 23.687 0 0 0 517.181 20.601 Q 515.898 20.4 514.8 20.4 Q 511.9 20.4 509.85 22.35 A 15.191 15.191 0 0 0 508.015 24.427 A 11.944 11.944 0 0 0 506.8 26.5 Q 505.8 28.7 505.5 29.8 L 505.5 65.8 L 498.2 65.8 Z M 409.103 66.015 A 25.317 25.317 0 0 0 415.6 66.8 A 26.577 26.577 0 0 0 419.552 66.517 A 18.058 18.058 0 0 0 431.35 59.95 Q 436.9 53.1 436.9 40.8 Q 436.9 28.4 431.45 21.6 A 17.351 17.351 0 0 0 422.097 15.585 A 25.317 25.317 0 0 0 415.6 14.8 A 26.767 26.767 0 0 0 410.674 15.232 A 17.652 17.652 0 0 0 399.75 21.6 Q 396.046 26.222 394.859 33.431 A 45.453 45.453 0 0 0 394.3 40.8 Q 394.3 53.2 399.75 60 A 17.351 17.351 0 0 0 409.103 66.015 Z M 459.203 66.015 A 25.317 25.317 0 0 0 465.7 66.8 A 26.577 26.577 0 0 0 469.652 66.517 A 18.058 18.058 0 0 0 481.45 59.95 Q 487 53.1 487 40.8 Q 487 28.4 481.55 21.6 A 17.351 17.351 0 0 0 472.197 15.585 A 25.317 25.317 0 0 0 465.7 14.8 A 26.767 26.767 0 0 0 460.774 15.232 A 17.652 17.652 0 0 0 449.85 21.6 Q 446.146 26.222 444.959 33.431 A 45.453 45.453 0 0 0 444.4 40.8 Q 444.4 53.2 449.85 60 A 17.351 17.351 0 0 0 459.203 66.015 Z M 415.6 62.4 A 14.408 14.408 0 0 0 419.795 61.824 A 10.609 10.609 0 0 0 425.9 57.05 Q 428.983 52.052 429.186 42.211 A 68.453 68.453 0 0 0 429.2 40.8 Q 429.2 30 425.9 24.6 A 10.727 10.727 0 0 0 418.12 19.394 A 15.712 15.712 0 0 0 415.6 19.2 A 14.408 14.408 0 0 0 411.405 19.776 A 10.609 10.609 0 0 0 405.3 24.55 Q 402.217 29.548 402.014 39.389 A 68.453 68.453 0 0 0 402 40.8 Q 402 50.61 404.673 55.924 A 14.868 14.868 0 0 0 405.3 57.05 A 10.734 10.734 0 0 0 413.105 62.212 A 15.878 15.878 0 0 0 415.6 62.4 Z M 465.7 62.4 A 14.408 14.408 0 0 0 469.895 61.824 A 10.609 10.609 0 0 0 476 57.05 Q 479.083 52.052 479.286 42.211 A 68.453 68.453 0 0 0 479.3 40.8 Q 479.3 30 476 24.6 A 10.727 10.727 0 0 0 468.22 19.394 A 15.712 15.712 0 0 0 465.7 19.2 A 14.408 14.408 0 0 0 461.505 19.776 A 10.609 10.609 0 0 0 455.4 24.55 Q 452.317 29.548 452.114 39.389 A 68.453 68.453 0 0 0 452.1 40.8 Q 452.1 50.61 454.773 55.924 A 14.868 14.868 0 0 0 455.4 57.05 A 10.734 10.734 0 0 0 463.205 62.212 A 15.878 15.878 0 0 0 465.7 62.4 Z M 25 6.6 L 13.5 41.7 L 36.3 41.7 L 25 6.6 Z M 158.5 55.1 L 158.5 40.5 A 61.876 61.876 0 0 0 152.132 41.517 Q 149.053 42.186 146.471 43.145 A 30.38 30.38 0 0 0 143.55 44.4 A 11.724 11.724 0 0 0 140.341 46.669 Q 137.7 49.367 137.7 53.6 Q 137.7 57.9 140.2 60.15 A 8.403 8.403 0 0 0 143.8 62.028 Q 145.07 62.353 146.567 62.394 A 15.921 15.921 0 0 0 147 62.4 A 13.595 13.595 0 0 0 150.057 62.071 A 10.408 10.408 0 0 0 153.2 60.8 A 17.092 17.092 0 0 0 155.106 59.45 Q 156.057 58.668 156.75 57.823 A 9.526 9.526 0 0 0 157.15 57.3 Q 158.5 55.4 158.5 55.1 Z M 336 40.4 L 313.1 40.4 L 313.1 35.7 L 336 35.7 L 336 40.4 Z" fill="white"/>
<path d="M265.19 33V28.644H269.326V33H265.19Z" fill="#F13024"/>
</svg>
