<svg width="270" height="34" viewBox="0 0 270 34" fill="none" xmlns="http://www.w3.org/2000/svg">
<path d="M 0 32.641 L 0 0.641 L 3.84 0.641 L 4.416 3.713 A 7.539 7.539 0 0 1 5.256 2.873 Q 5.722 2.47 6.312 2.064 A 18.804 18.804 0 0 1 7.616 1.249 A 7.897 7.897 0 0 1 9.428 0.513 Q 11.264 0.001 13.888 0.001 A 13.146 13.146 0 0 1 16.814 0.307 Q 18.856 0.773 20.337 1.948 A 7.968 7.968 0 0 1 21.056 2.593 Q 23.616 5.185 23.616 10.305 L 23.616 32.641 L 18.944 32.641 L 18.944 11.265 Q 18.944 7.302 17.386 5.406 A 4.73 4.73 0 0 0 17.28 5.281 A 5.307 5.307 0 0 0 14.658 3.681 Q 13.627 3.393 12.352 3.393 A 12.773 12.773 0 0 0 10.382 3.537 Q 9.274 3.71 8.335 4.091 A 8.063 8.063 0 0 0 8.32 4.097 A 14.518 14.518 0 0 0 7.15 4.631 Q 6.603 4.913 6.159 5.213 A 6.784 6.784 0 0 0 5.6 5.633 Q 4.619 6.456 4.608 6.59 A 0.036 0.036 0 0 0 4.608 6.593 L 4.608 32.641 L 0 32.641 Z M 96.832 32.641 L 96.832 0.641 L 100.288 0.641 L 100.992 7.233 Q 100.992 6.872 101.643 5.237 A 50.005 50.005 0 0 1 101.728 5.025 Q 102.464 3.201 104 1.601 A 5.139 5.139 0 0 1 107.447 0.02 A 6.971 6.971 0 0 1 107.968 0.001 Q 109.184 0.001 110.72 0.417 A 58.442 58.442 0 0 1 111.34 0.588 Q 112.168 0.822 112.554 0.965 A 3.316 3.316 0 0 1 112.704 1.025 L 112.256 4.545 A 3.467 3.467 0 0 0 112.006 4.452 Q 111.592 4.312 110.777 4.103 A 53.366 53.366 0 0 0 110.24 3.969 Q 108.899 3.64 107.815 3.593 A 8.201 8.201 0 0 0 107.456 3.585 Q 105.6 3.585 104.288 4.833 A 9.723 9.723 0 0 0 103.114 6.162 A 7.644 7.644 0 0 0 102.336 7.489 Q 101.831 8.601 101.605 9.274 A 5.968 5.968 0 0 0 101.504 9.601 L 101.504 32.641 L 96.832 32.641 Z M 39.81 32.778 A 16.203 16.203 0 0 0 43.968 33.281 A 17.009 17.009 0 0 0 46.497 33.1 A 11.557 11.557 0 0 0 54.048 28.897 A 13.663 13.663 0 0 0 55.776 26.131 Q 56.765 24.044 57.218 21.431 A 28.104 28.104 0 0 0 57.6 16.641 A 31.541 31.541 0 0 0 57.461 13.61 Q 57.228 11.204 56.608 9.197 A 14.484 14.484 0 0 0 54.112 4.353 A 11.105 11.105 0 0 0 48.126 0.503 A 16.203 16.203 0 0 0 43.968 0.001 Q 37.312 0.001 33.824 4.353 Q 31.453 7.311 30.694 11.924 A 29.09 29.09 0 0 0 30.336 16.641 A 31.541 31.541 0 0 0 30.475 19.671 Q 30.708 22.077 31.328 24.085 A 14.484 14.484 0 0 0 33.824 28.929 A 11.105 11.105 0 0 0 39.81 32.778 Z M 71.874 32.778 A 16.203 16.203 0 0 0 76.032 33.281 A 17.009 17.009 0 0 0 78.561 33.1 A 11.557 11.557 0 0 0 86.112 28.897 A 13.663 13.663 0 0 0 87.84 26.131 Q 88.829 24.044 89.282 21.431 A 28.104 28.104 0 0 0 89.664 16.641 A 31.541 31.541 0 0 0 89.525 13.61 Q 89.292 11.204 88.672 9.197 A 14.484 14.484 0 0 0 86.176 4.353 A 11.105 11.105 0 0 0 80.19 0.503 A 16.203 16.203 0 0 0 76.032 0.001 Q 69.376 0.001 65.888 4.353 Q 63.517 7.311 62.758 11.924 A 29.09 29.09 0 0 0 62.4 16.641 A 31.541 31.541 0 0 0 62.539 19.671 Q 62.772 22.077 63.392 24.085 A 14.484 14.484 0 0 0 65.888 28.929 A 11.105 11.105 0 0 0 71.874 32.778 Z M 43.968 30.465 A 9.221 9.221 0 0 0 46.653 30.096 A 6.79 6.79 0 0 0 50.56 27.041 A 11.566 11.566 0 0 0 51.762 24.267 Q 52.581 21.525 52.663 17.544 A 43.809 43.809 0 0 0 52.672 16.641 A 36.444 36.444 0 0 0 52.505 13.026 Q 52.125 9.224 50.879 6.838 A 9.621 9.621 0 0 0 50.56 6.273 A 6.865 6.865 0 0 0 45.581 2.941 A 10.055 10.055 0 0 0 43.968 2.817 A 9.221 9.221 0 0 0 41.283 3.185 A 6.79 6.79 0 0 0 37.376 6.241 A 11.566 11.566 0 0 0 36.174 9.014 Q 35.355 11.757 35.273 15.737 A 43.809 43.809 0 0 0 35.264 16.641 A 36.964 36.964 0 0 0 35.431 20.284 Q 35.799 23.982 36.975 26.32 A 9.516 9.516 0 0 0 37.376 27.041 Q 39.488 30.465 43.968 30.465 Z M 76.032 30.465 A 9.221 9.221 0 0 0 78.717 30.096 A 6.79 6.79 0 0 0 82.624 27.041 A 11.566 11.566 0 0 0 83.826 24.267 Q 84.645 21.525 84.727 17.544 A 43.809 43.809 0 0 0 84.736 16.641 A 36.444 36.444 0 0 0 84.569 13.026 Q 84.189 9.224 82.943 6.838 A 9.621 9.621 0 0 0 82.624 6.273 A 6.865 6.865 0 0 0 77.645 2.941 A 10.055 10.055 0 0 0 76.032 2.817 A 9.221 9.221 0 0 0 73.347 3.185 A 6.79 6.79 0 0 0 69.44 6.241 A 11.566 11.566 0 0 0 68.238 9.014 Q 67.419 11.757 67.337 15.737 A 43.809 43.809 0 0 0 67.328 16.641 A 36.964 36.964 0 0 0 67.495 20.284 Q 67.863 23.982 69.039 26.32 A 9.516 9.516 0 0 0 69.44 27.041 Q 71.552 30.465 76.032 30.465 Z" fill="white"/>
<path d="M265.19 33V28.644H269.326V33H265.19Z" fill="#F13024"/>
</svg>
